<svg xmlns="http://www.w3.org/2000/svg" width="42.635" height="32" viewBox="0 0 42.635 32">
  <path id="Path_21" data-name="Path 21" d="M42.635,13.538,40.5,14.77,38.371,16,36.24,14.768l-2.132-1.23-2.132,1.23V32l-2.133-1.232-2.13-1.23V17.23l-2.132,1.232-2.132,1.23-1.563.9-.569.328-.569-.328-1.563-.9-2.132-1.23L14.922,17.23V29.538l-2.13,1.23L10.659,32V14.768l-2.132-1.23L6.4,14.768,4.263,16,2.132,14.77,0,13.538l2.132-1.23.418-.242,1.714-.99L6.4,9.847,8.527,8.615l2.132,1.23V0l4.263,2.46v9.847l2.132,1.232,2.132,1.23L21.317,16l2.132-1.232,2.132-1.23,2.132-1.232V2.46L31.976,0V9.845l2.132-1.23L36.24,9.847l2.132,1.23,1.714.99.418.242Z" fill="#fff"/>
</svg>
